nColumns=28
nRows=33
DataType=double
version=3
OpenSimVersion=4.1
endheader
time	ground_force_1_vx	ground_force_1_vy	ground_force_1_vz	ground_force_1_px	ground_force_1_py	ground_force_1_pz	ground_force_1_mx	ground_force_1_my	ground_force_1_mz	ground_force_2_vx	ground_force_2_vy	ground_force_2_vz	ground_force_2_px	ground_force_2_py	ground_force_2_pz	ground_force_2_mx	ground_force_2_my	ground_force_2_mz	ground_force_3_vx	ground_force_3_vy	ground_force_3_vz	ground_force_3_px	ground_force_3_py	ground_force_3_pz	ground_force_3_mx	ground_force_3_my	ground_force_3_mz
6.59	-20.78	510.046	-45.5386	-0.155305	0.006	-0.438611	0	-4.24541	0	9.0572	210.289	43.078	-0.256148	0.006	-0.994593	0	0.504887	0	0	0	0	0	0	0	0	0	0
6.6	-20.817	506.376	-46.5129	-0.15435	0.006	-0.438685	0	-4.0523	0	9.03315	212.249	45.0975	-0.255314	0.006	-0.995482	0	0.434198	0	0	0	0	0	0	0	0	0	0
6.61	-20.8118	502.732	-47.5811	-0.153394	0.006	-0.43872	0	-3.86354	0	9.0207	213.84	46.9137	-0.254466	0.006	-0.99631	0	0.371828	0	0	0	0	0	0	0	0	0	0
6.62	-20.776	499.125	-48.7215	-0.152445	0.006	-0.43872	0	-3.68092	0	9.02069	215.029	48.5095	-0.253603	0.006	-0.997079	0	0.319096	0	0	0	0	0	0	0	0	0	0
6.63	-20.7231	495.557	-49.9089	-0.15151	0.006	-0.438688	0	-3.50601	0	9.03319	215.802	49.8736	-0.252732	0.006	-0.997792	0	0.276758	0	0	0	0	0	0	0	0	0	0
6.64	-20.6672	492.026	-51.1184	-0.150594	0.006	-0.438631	0	-3.34009	0	9.05654	216.157	51.0011	-0.251856	0.006	-0.99845	0	0.245022	0	0	0	0	0	0	0	0	0	0
6.65	-20.6207	488.525	-52.3278	-0.149704	0.006	-0.438551	0	-3.18391	0	9.08734	216.102	51.8907	-0.250983	0.006	-0.999054	0	0.223666	0	0	0	0	0	0	0	0	0	0
6.66	-20.5921	485.049	-53.5193	-0.148844	0.006	-0.438455	0	-3.03768	0	9.12091	215.648	52.5443	-0.25012	0.006	-0.999603	0	0.212133	0	0	0	0	0	0	0	0	0	0
6.67	-20.5864	481.593	-54.6791	-0.14802	0.006	-0.438346	0	-2.90122	0	9.15254	214.808	52.9652	-0.249279	0.006	-1.00009	0	0.209487	0	0	0	0	0	0	0	0	0	0
6.68	-20.6062	478.153	-55.7969	-0.147238	0.006	-0.438229	0	-2.77391	0	9.18012	213.598	53.1586	-0.248475	0.006	-1.00053	0	0.214373	0	0	0	0	0	0	0	0	0	0
6.69	-20.653	474.721	-56.8654	-0.146502	0.006	-0.438108	0	-2.65484	0	9.20695	212.038	53.1318	-0.247731	0.006	-1.00089	0	0.225147	0	0	0	0	0	0	0	0	0	0
6.7	-20.7284	471.288	-57.8798	-0.145815	0.006	-0.437986	0	-2.54283	0	9.24117	210.154	52.8956	-0.247066	0.006	-1.00119	0	0.239861	0	0	0	0	0	0	0	0	0	0
6.71	-20.8345	467.839	-58.838	-0.145179	0.006	-0.437867	0	-2.43648	0	9.29184	207.978	52.4661	-0.246499	0.006	-1.00142	0	0.256444	0	0	0	0	0	0	0	0	0	0
6.72	-20.9733	464.362	-59.7407	-0.144597	0.006	-0.437754	0	-2.33452	0	9.36408	205.552	51.8641	-0.246035	0.006	-1.00158	0	0.272878	0	0	0	0	0	0	0	0	0	0
6.73	-21.1463	460.845	-60.5899	-0.144068	0.006	-0.437651	0	-2.23613	0	9.4563	202.918	51.1138	-0.245672	0.006	-1.00167	0	0.287328	0	0	0	0	0	0	0	0	0	0
6.74	-21.3544	457.286	-61.3866	-0.143598	0.006	-0.43756	0	-2.14124	0	9.56215	200.124	50.2407	-0.2454	0.006	-1.0017	0	0.298451	0	0	0	0	0	0	0	0	0	0
6.75	-21.5956	453.692	-62.1296	-0.143188	0.006	-0.437485	0	-2.05052	0	9.67408	197.219	49.272	-0.245205	0.006	-1.00167	0	0.30553	0	0	0	0	0	0	0	0	0	0
6.76	-21.8647	450.077	-62.815	-0.142846	0.006	-0.437427	0	-1.96521	0	9.78562	194.254	48.2355	-0.245076	0.006	-1.00159	0	0.308321	0	0	0	0	0	0	0	0	0	0
6.77	-22.1528	446.46	-63.4387	-0.142577	0.006	-0.437389	0	-1.88671	0	9.89188	191.276	47.1582	-0.245002	0.006	-1.00146	0	0.306977	0	0	0	0	0	0	0	0	0	0
6.78	-22.4496	442.854	-63.9991	-0.142386	0.006	-0.437371	0	-1.81636	0	9.98938	188.332	46.0654	-0.244978	0.006	-1.00128	0	0.301801	0	0	0	0	0	0	0	0	0	0
6.79	-22.7447	439.263	-64.4966	-0.142276	0.006	-0.437371	0	-1.75517	0	10.076	185.459	44.9798	-0.244995	0.006	-1.00108	0	0.293032	0	0	0	0	0	0	0	0	0	0
6.8	-23.0272	435.676	-64.9335	-0.142248	0.006	-0.437386	0	-1.70377	0	10.1507	182.689	43.922	-0.245047	0.006	-1.00085	0	0.280896	0	0	0	0	0	0	0	0	0	0
6.81	-23.2875	432.067	-65.3125	-0.142299	0.006	-0.437412	0	-1.66236	0	10.2129	180.047	42.9108	-0.245126	0.006	-1.00061	0	0.265506	0	0	0	0	0	0	0	0	0	0
6.82	-23.5179	428.402	-65.6362	-0.142422	0.006	-0.437446	0	-1.63087	0	10.2619	177.559	41.9643	-0.245221	0.006	-1.00037	0	0.246833	0	0	0	0	0	0	0	0	0	0
6.83	-23.7116	424.646	-65.9077	-0.142612	0.006	-0.437484	0	-1.60895	0	10.2959	175.254	41.1007	-0.245322	0.006	-1.00014	0	0.224817	0	0	0	0	0	0	0	0	0	0
6.84	-23.862	420.77	-66.1316	-0.142863	0.006	-0.437521	0	-1.596	0	10.3124	173.168	40.3383	-0.245421	0.006	-0.999938	0	0.199371	0	0	0	0	0	0	0	0	0	0
6.85	-23.9622	416.748	-66.3135	-0.143169	0.006	-0.437554	0	-1.59099	0	10.3092	171.335	39.694	-0.24551	0.006	-0.99977	0	0.170462	0	0	0	0	0	0	0	0	0	0
6.86	-24.0053	412.558	-66.4584	-0.143528	0.006	-0.437581	0	-1.59278	0	10.2842	169.794	39.1831	-0.245582	0.006	-0.999648	0	0.138309	0	0	0	0	0	0	0	0	0	0
6.87	-23.9848	408.187	-66.5689	-0.143934	0.006	-0.437599	0	-1.60035	0	10.2363	168.58	38.8176	-0.245634	0.006	-0.999574	0	0.103488	0	0	0	0	0	0	0	0	0	0
6.88	-23.8952	403.623	-66.6443	-0.144386	0.006	-0.437609	0	-1.61285	0	10.1645	167.724	38.6053	-0.245671	0.006	-0.999548	0	0.067	0	0	0	0	0	0	0	0	0	0
6.89	-23.7329	398.86	-66.6804	-0.144878	0.006	-0.43761	0	-1.62965	0	10.0693	167.248	38.5483	-0.2457	0.006	-0.999563	0	0.030107	0	0	0	0	0	0	0	0	0	0
6.9	-23.4963	393.899	-66.6711	-0.145406	0.006	-0.437604	0	-1.65031	0	9.95448	167.159	38.6419	-0.245733	0.006	-0.999609	0	-0.005919	0	0	0	0	0	0	0	0	0	0
6.91	-23.1864	388.74	-66.6091	-0.145966	0.006	-0.437594	0	-1.6743	0	9.82659	167.456	38.8755	-0.245786	0.006	-0.999674	0	-0.039891	0	0	0	0	0	0	0	0	0	0
